<?xml version="1.0"?>
<svg xmlns="http://www.w3.org/2000/svg" xmlns:xlink="http://www.w3.org/1999/xlink" xmlns:svgjs="http://svgjs.com/svgjs" version="1.1" width="512" height="512" x="0" y="0" viewBox="0 0 512 512" style="enable-background:new 0 0 512 512" xml:space="preserve" class=""><g>
<circle xmlns="http://www.w3.org/2000/svg" style="" cx="256" cy="256" r="256" fill="#f7c500" data-original="#e21b1b" class=""/>
<g xmlns="http://www.w3.org/2000/svg">
	<path style="" d="M221.528,233.36c-2.6,0-5.2-0.992-7.184-2.976l-98.512-98.512c-3.968-3.968-3.968-10.408,0-14.376   s10.4-3.968,14.376,0l98.512,98.512c3.968,3.968,3.968,10.408,0,14.376C226.736,232.368,224.136,233.36,221.528,233.36z" fill="#ffffff" data-original="#ffffff" class=""/>
	<path style="" d="M123.016,233.36c-2.6,0-5.2-0.992-7.184-2.976c-3.968-3.968-3.968-10.4,0-14.376l98.512-98.52   c3.968-3.968,10.4-3.968,14.376,0c3.968,3.968,3.968,10.4,0,14.376l-98.512,98.52C128.224,232.368,125.616,233.36,123.016,233.36z" fill="#ffffff" data-original="#ffffff" class=""/>
	<path style="" d="M221.528,400.024h-99.872c-5.616,0-10.168-4.552-10.168-10.168v-99.88   c0-5.616,4.552-10.168,10.168-10.168h99.88c5.616,0,10.168,4.552,10.168,10.168v99.88   C231.696,395.472,227.144,400.024,221.528,400.024z M131.816,379.696h79.552v-79.552h-79.552V379.696z" fill="#ffffff" data-original="#ffffff" class=""/>
	<path style="" d="M356.752,282.984c29.28,0,53.104,23.824,53.104,53.104s-23.824,53.104-53.104,53.104   s-53.104-23.824-53.104-53.104S327.472,282.984,356.752,282.984 M356.752,263.56c-40.056,0-72.528,32.472-72.528,72.528   s32.472,72.528,72.528,72.528s72.528-32.472,72.528-72.528C429.288,296.032,396.808,263.56,356.752,263.56L356.752,263.56z" fill="#ffffff" data-original="#ffffff" class=""/>
	<path style="" d="M412.44,219.432H300.864c-3.472,0-6.68-1.848-8.416-4.856c-1.736-3.008-1.736-6.712,0-9.712   l55.792-96.624c1.736-3.008,4.944-4.856,8.416-4.856c3.472,0,6.68,1.848,8.416,4.856l55.792,96.624   c1.736,3.008,1.736,6.712,0,9.712C419.12,217.584,415.912,219.432,412.44,219.432z M317.688,200.008h77.928l-38.968-67.488   L317.688,200.008z" fill="#ffffff" data-original="#ffffff" class=""/>
</g>
<g xmlns="http://www.w3.org/2000/svg">
</g>
<g xmlns="http://www.w3.org/2000/svg">
</g>
<g xmlns="http://www.w3.org/2000/svg">
</g>
<g xmlns="http://www.w3.org/2000/svg">
</g>
<g xmlns="http://www.w3.org/2000/svg">
</g>
<g xmlns="http://www.w3.org/2000/svg">
</g>
<g xmlns="http://www.w3.org/2000/svg">
</g>
<g xmlns="http://www.w3.org/2000/svg">
</g>
<g xmlns="http://www.w3.org/2000/svg">
</g>
<g xmlns="http://www.w3.org/2000/svg">
</g>
<g xmlns="http://www.w3.org/2000/svg">
</g>
<g xmlns="http://www.w3.org/2000/svg">
</g>
<g xmlns="http://www.w3.org/2000/svg">
</g>
<g xmlns="http://www.w3.org/2000/svg">
</g>
<g xmlns="http://www.w3.org/2000/svg">
</g>
</g></svg>
