<?xml version="1.0" encoding="iso-8859-1"?>
<!-- Generator: Adobe Illustrator 19.0.0, SVG Export Plug-In . SVG Version: 6.00 Build 0)  -->
<svg version="1.1" id="Layer_1" xmlns="http://www.w3.org/2000/svg" xmlns:xlink="http://www.w3.org/1999/xlink" x="0px" y="0px"
	 viewBox="0 0 512 512" style="enable-background:new 0 0 512 512;" xml:space="preserve">
<g>
	<g>
		<path d="M455.111,0H56.889c-9.241,0-16.732,7.492-16.732,16.732v21.194h431.686V16.732C471.843,7.492,464.352,0,455.111,0z"/>
	</g>
</g>
<g>
	<g>
		<path d="M40.157,71.39v423.878c0,9.241,7.492,16.732,16.732,16.732h398.222c9.241,0,16.732-7.492,16.732-16.732V71.39
			C461.416,71.39,48.231,71.39,40.157,71.39z M280.35,125.181h66.986c9.241,0,16.732,7.491,16.732,16.732
			s-7.492,16.732-16.732,16.732H280.35c-9.241,0-16.732-7.492-16.732-16.732S271.109,125.181,280.35,125.181z M167.688,90.613
			c24.688,0,44.7,23.871,44.7,53.316s-20.013,53.317-44.7,53.317s-44.7-23.871-44.7-53.317
			C122.988,114.483,143.001,90.613,167.688,90.613z M232.407,470.964H102.97c-5.15,0-9.104-4.523-8.444-9.602
			c2.24-17.236,10.437-32.596,22.448-43.97c13.463,14.67,31.761,23.026,50.715,23.026s37.252-8.356,50.715-23.026
			c12.01,11.374,20.208,26.733,22.448,43.97C241.508,466.417,237.555,470.964,232.407,470.964z M122.987,359.214
			c0-29.446,20.013-53.316,44.7-53.316s44.7,23.871,44.7,53.316c0,29.446-20.013,53.317-44.7,53.317S122.987,388.66,122.987,359.214
			z M232.407,255.679H102.97c-5.15,0-9.104-4.523-8.444-9.602c2.24-17.236,10.437-32.596,22.448-43.97
			c13.463,14.67,31.761,23.026,50.715,23.026s37.252-8.356,50.715-23.026c12.01,11.374,20.208,26.733,22.448,43.97
			C241.508,251.132,237.555,255.679,232.407,255.679z M417.545,436.397H280.35c-9.241,0-16.732-7.491-16.732-16.732
			s7.492-16.732,16.732-16.732h137.196c9.241,0,16.732,7.492,16.732,16.732S426.786,436.397,417.545,436.397z M263.617,357.199
			c0-9.241,7.492-16.732,16.732-16.732h66.986c9.241,0,16.732,7.491,16.732,16.732s-7.492,16.732-16.732,16.732H280.35
			C271.109,373.931,263.617,366.439,263.617,357.199z M417.545,221.112H280.35c-9.241,0-16.732-7.492-16.732-16.732
			s7.492-16.732,16.732-16.732h137.196c9.241,0,16.732,7.491,16.732,16.732S426.786,221.112,417.545,221.112z"/>
	</g>
</g>
<g>
</g>
<g>
</g>
<g>
</g>
<g>
</g>
<g>
</g>
<g>
</g>
<g>
</g>
<g>
</g>
<g>
</g>
<g>
</g>
<g>
</g>
<g>
</g>
<g>
</g>
<g>
</g>
<g>
</g>
</svg>
